<svg xmlns="http://www.w3.org/2000/svg" width="117" height="18" fill="none" viewBox="0 0 117 18">
  <path fill="#F5A623" d="M8.094 1.563L6.063 5.718l-4.594.656C.656 6.5.344 7.5.937 8.094l3.282 3.219-.782 4.53c-.124.813.75 1.438 1.47 1.063L9 14.75l4.063 2.156c.718.375 1.593-.25 1.468-1.062l-.781-4.531 3.281-3.22c.594-.593.282-1.593-.531-1.718l-4.563-.656-2.062-4.157c-.344-.718-1.406-.75-1.781 0zm24.75 0l-2.032 4.156-4.593.656c-.813.125-1.125 1.125-.532 1.719l3.282 3.219-.782 4.53c-.125.813.75 1.438 1.47 1.063l4.093-2.156 4.063 2.156c.718.375 1.593-.25 1.468-1.062l-.781-4.531 3.281-3.22c.594-.593.282-1.593-.531-1.718l-4.563-.656-2.062-4.157c-.344-.718-1.406-.75-1.781 0zm24.75 0l-2.032 4.156-4.593.656c-.813.125-1.125 1.125-.532 1.719l3.282 3.219-.782 4.53c-.124.813.75 1.438 1.47 1.063L58.5 14.75l4.063 2.156c.718.375 1.593-.25 1.468-1.062l-.781-4.531 3.281-3.22c.594-.593.281-1.593-.531-1.718l-4.563-.656-2.062-4.157c-.344-.718-1.406-.75-1.781 0zm24.75 0l-2.031 4.156-4.594.656c-.813.125-1.125 1.125-.531 1.719l3.28 3.219-.78 4.53c-.126.813.75 1.438 1.468 1.063l4.094-2.156 4.063 2.156c.718.375 1.593-.25 1.468-1.062L88 11.313l3.281-3.22c.594-.593.281-1.593-.531-1.718l-4.563-.656-2.062-4.157c-.344-.718-1.406-.75-1.781 0zm24.75 0l-2.032 4.156-4.593.656c-.813.125-1.125 1.125-.531 1.719l3.281 3.219-.781 4.53c-.126.813.75 1.438 1.468 1.063L108 14.75l4.062 2.156c.719.375 1.594-.25 1.469-1.062l-.781-4.531 3.281-3.22c.594-.593.281-1.593-.531-1.718l-4.562-.656-2.063-4.157c-.344-.718-1.406-.75-1.781 0z"/>
</svg>
